<svg xmlns="http://www.w3.org/2000/svg" width="400" height="300" preserveAspectRatio="none"><path fill="#CCC" fill-opacity=".6" d="M84.486 228.493q-.046-.094-.046-.14l-.7-1.634q-.748-.934-2.008-1.68-1.54-.934-3.174-.934-1.728 0-3.548 1.073-.654.374-1.074.794-.887.747-1.307 1.727-.84 1.68-.327 3.408l.047.187q1.307 3.828 6.442 3.36 5.182-.56 5.695-4.574.094-.7.047-1.354-.047-.14-.047-.233m-2.94-.887q1.166 1.074.7 2.427l-.187.374q-.467.933-1.494 1.447-1.074.607-2.614.607-2.334 0-2.988-1.26-.7-.888-.28-2.381.28-.98 1.354-1.588 1.447-.933 2.894-.747 1.074 0 1.867.56.42.28.747.56m-24.975 8.217q0-.98-.933-2.1-.887-1.121-1.727-1.168-.607 0-1.12-.093-.888-.094-1.635 0-.98.233-1.68.793l-.374.374q-.14.14-.28.373-.093.094-.14.234-.7 1.213-.233 2.614.046.187.14.42 1.027 2.474 4.481 1.82 2.755-.466 3.361-2.24.14-.467.14-1.027m10.55-6.256q-.186-.093-.326-.14-1.26-.466-2.521-.466-1.354 0-2.66.606-.421.187-.748.374-1.774 1.167-1.774 3.408-.046 2.427 2.568 3.5.046.048.093.048 1.867.746 3.828.466.794-.14 1.587-.513.047 0 .094-.047 2.147-.98 2.52-2.847.047-.374.047-.794-.093-1.54-.98-2.52-.654-.654-1.727-1.075m-2.568 5.556q-.84 0-1.54-.14-.934-.14-1.354-.607-.467-.467-.467-1.12 0-.794.653-1.261.187-.187.374-.28.794-.467 1.774-.514 1.82-.186 2.987.887l.094.094q.047 0 .093.046.28.234.42.56.187.42.047.888-.093.186-.28.466-.794.98-2.801.98m29.316-17.598q-.56.046-1.167.186-3.127.7-4.808 2.708-1.587 1.867-1.494 4.108v.187q.047.233.094.42.28 1.26.887 2.287.373.514.84.98 1.26 1.12 3.034 1.634l1.26.234q.374.046.794.093 3.361.233 5.649-1.26 2.147-1.4 2.754-3.688.56-2.288-.7-4.248-1.354-2.241-4.482-3.128-1.774-.467-2.66-.513m-2.008 3.08q.047 0 .14-.046l.187-.047q1.167-.42 1.587-.467.187 0 .56.094 1.634-.047 2.988.887 1.82.887 2.007 2.567.28 1.12-.373 2.148-.514.887-1.54 1.447-.981.467-2.428.607-.28.046-.56.046-.98.047-2.055-.186-3.034-.42-3.08-1.588v-.046l-.327-1.214q-.327-1.167.513-2.428.887-1.213 2.381-1.773m-10.877-57.606q-2.754-1.4-6.675-.467-1.821.467-3.268 1.12-3.408 1.728-4.575 4.435-.467 1.027-.28 2.708.047.373.187.793.653 1.914.98 2.148.373.187.84 1.167l.514 1.027-3.081 1.587q-3.455 1.82-5.369 3.688-1.914 1.914-1.914 3.501 0 1.26 3.128 3.501 3.081 2.194 5.975 2.895 1.167.326 1.167 1.073 0 .7-1.167 2.661-1.82 2.941-2.52 5.509-.747 2.614-.187 4.154.653 1.82-1.727 1.82-1.214 0-.467 1.261.7 1.26 2.66 2.428.794.56 3.315.747l2.474.186 2.24 2.334q3.269 3.315 7.89 4.295 4.575 1.074 8.17-.793l2.147-1.12q1.214-.56 3.174-1.821 2.288-1.54 3.175-.7 2.474 2.474 11.53 4.107 9.056 1.588 13.958.42 9.15-2.053 14.098-9.663 4.948-7.562 1.447-14.05l-1.027-1.915 1.307-1.82q3.548-4.855 2.708-9.383-.887-4.575-6.162-8.963-1.26-1.12-1.868-1.167-.513 0-.56.98 0 1.587-.607 1.587t-2.847-1.587q-8.73-5.929-15.872-6.022-7.142-.093-12.324 5.648-1.727 1.914-2.288 2.008-.606.093-.653-1.587-.047-4.155-2.941-4.902-2.848-.794-6.816 2.287-1.82 1.354-2.38 1.26-.654-.093-1.167-1.82l-.187-.467q-.747-1.82-1.914-3.22-.98-1.214-2.24-1.868m52.143 11.157q.233-.327 1.68.98 1.448 1.307 2.335 2.615 2.894 4.434.746 8.822-.746 1.4-2.474 3.221-1.774 1.868-2.147 1.588-.28-.187-.374-8.543-.093-8.31.234-8.683m-.047 19.42q0-.047.047-.14v-.047q.14-.84.233-.934.047-.046.42.187.514.28 1.914 1.774.514.513.934 1.634.047.047.093.14.887 1.867.56 3.314v.047l-.326 1.634q-.607 2.38-1.307 3.828-.467.98-1.167 1.96-3.502 5.602-10.364 7.516-3.688 1.027-7.889.794l-17.46-5.042-2.8-1.354-1.027.794q-7.002 5.275-11.95 5.322-4.996.093-8.45-5.089-1.167-1.727-1.82-2.147-.654-.42-1.634 0-1.354.514-3.735-.187-2.428-.653-1.447-1.307.56-.28 28.43-.28 20.212-.047 24.087-.14 4.435-.093 5.742-.56 3.828-1.354 5.975-4.248 2.194-2.801 2.941-7.47m-90.656-52.937-.887 1.774v54.338l.887 1.774q1.867 3.968 5.275 5.742 3.36 1.727 8.87 1.634l4.48-.14-.14-2.148q-.186-3.828 1.635-7.656l.933-2.007-.84-.653q-.887-.654-1.587-.934-2.147-.654-4.295-3.174-2.1-2.475-2.1-4.342 0-2.007 1.96-4.621 2.054-2.615 5.042-4.529 1.12-.7 1.4-1.027.28-.373.187-.886-1.027-4.015-.607-6.116.42-2.054 2.754-4.341 4.715-4.762 11.064-4.855 6.349-.047 9.85 4.621 1.167 1.54 1.727 1.634.654.187 2.334-.607 2.568-1.26 5.182-.84 2.66.327 4.108 2.147.7.887 1.307.84.7 0 2.1-.98 5.136-3.454 12.325-2.847 7.142.7 14.751 5.322 2.288 1.4 2.521 1.213.42-.42.233-13.164-.14-12.744-.606-13.818-1.26-3.314-3.221-5.228-1.961-1.914-4.995-2.941-2.288-.747-37.3-.654-35.01.047-37.252.84-1.96.7-4.014 2.661-2.054 1.868-3.081 3.968m133.183-7.189q-.887.887.654 5.836 1.494 4.948 3.454 7.982 1.728 2.614 5.042 5.369 3.361 2.754 5.555 3.36.84.28 1.26 1.308.374 1.027.7 3.874.328 2.988.841 6.022l.467 2.521 2.568.14q2.894.094 3.314-.747.373-.887.373-7.469v-7.469l1.307-1.167q1.168-.98.887-1.54-.326-.514-2.334-.98l-3.267-.888q-1.448-.42-2.941-.747-1.868-.326-1.12-1.073.793-.747 4.34-2.101 4.249-1.68 4.342-2.287.047-.607-3.828-1.494-4.435-1.074-5.181-1.354-.84-.28-.84-.84 0-.7.513-.98.607-.374 2.94-2.662 2.288-2.24 2.288-2.52 0-.327-10.55-.327-10.457-.047-10.784.233m-2.66-11.343q.56-1.167-.654-2.054-1.214-.84-8.87-4.669-7.795-3.92-9.243-4.434-1.447-.514-1.96.466-.467 1.12.84 2.008 1.307.933 8.683 4.575 8.543 4.248 9.663 4.668 1.074.42 1.54-.56m56.019 17.459q-.327 1.54-.84 2.987l-1.214 3.035q-.7 1.353-1.447 2.66l-.28.42q-.42.748-.934 1.448-3.641 5.181-8.823 7.749-1.774.887-2.147 2.1-.374 1.168-1.587 10.084-.327 2.52-.56 2.8-.234.468-10.037.374-9.85-.046-10.177-.513-.467-.56-.98-5.135-.607-5.369-1.12-7.983-.234-.887-1.494-1.4-5.929-2.474-10.737-9.523-4.855-7.05-4.855-13.258v-.747q-.14-.934-.514-1.167-.186-.093-.466-.14-.887-.14-2.895-.14-2.66.047-4.154.373l-.98.28q-2.382.887-4.342 2.661-1.96 1.774-3.035 4.108-.513 1.027-.653 5.135-.093 4.202-.093 23.948v27.776l.887 1.54q2.147 4.015 6.021 5.836l2.241 1.073h36.179q30.296 0 34.311-.233 3.174-.187 4.481-.747.467-.14 2.148-1.4 2.287-1.774 2.94-2.661 1.121-1.494 1.495-4.435.653-4.108.56-27.636l-.094-26.422-.793-1.68q-3.595-7.33-11.624-7.33l-3.408-.046-.98 6.209m-36.832 37.812q.093-.047.187-.047.606-.046 2.054-.093l16.758.047.14 1.167q.094 1.12-1.213 1.307-1.4.187-9.197.233h-4.294q-2.988-.046-4.015-.186-.747-.094-1.167-.327-.514-.327-.514-.84 0-.98 1.26-1.261m-1.12 6.395.187-.886 19.933.233.14 1.074q.094 1.167-1.26 1.4-1.354.187-9.336.187-7.33.046-8.683-.234-1.354-.326-.98-1.774m1.167 5.135q.093-.046.186-.046.607-.047 2.008-.094l16.758.047.14 1.12q.094 1.168-1.26 1.401-1.354.187-9.29.187h-2.427l-3.361-.047q-1.96-.047-2.614-.14-.187-.047-.28-.047-1.074-.28-1.168-1.027v-.28q.094-.84 1.308-1.074m8.636 5.462h.653q3.175-.046 3.361 1.074.094.887-.28 1.307l-.28.187q-.093.046-.233.093l-.047.047q-.793.187-2.707.233H200.07q-1.494-.046-2.194-.327-.42-.14-.56-.373-.374-.373-.374-.887 0-.093.047-.187.327-1.027 3.828-1.167m19.886-61.106-5.788-.047h-13.118l-2.52 2.52q-2.101 2.195-2.008 2.755.047.607 2.66 1.167l6.583 1.634q3.548.84 3.781 1.26.28.467-2.147 1.447l-5.555 2.288q-1.961.887-1.774 1.167.186.28 3.314 1.26 3.641 1.12 3.828 1.68.187.561-2.38 2.755l-2.895 2.428.233 14.144h5.369l.28-1.214q.28-1.26.794-5.275.56-4.481.98-5.695.467-1.214 1.634-1.774 4.294-2.054 7.749-5.835l.653-.747q.327-.467.654-.887 3.595-4.855 4.715-11.344.093-.42.14-.746.28-1.448.28-1.588 0-.186-.047-.373-.186-.514-.887-.7-.606-.187-4.528-.28m6.676-11.064.747.98 9.99-4.948q7.702-3.875 9.056-4.762 1.354-.887.887-2.054-.42-1.027-2.1-.466-1.775.653-9.477 4.528-7.703 3.921-8.87 4.715-1.167.887-.233 2.007m2.194-15.312q6.815-5.835 8.496-7.609 1.727-1.774 1.167-2.567-.467-.794-1.354-.934-.793-.093-1.354.56-.233.42-7.795 7.096l-8.31 7.329q-.747.747-.653 1.54.093.794.933 1.354.514.327 2.988-1.54 2.567-1.821 3.828-3.408l2.054-1.82m-8.59-23.202q-1.12-.42-1.68.84-3.315 7.283-6.162 14.285-2.848 7.003-2.614 7.376.373.56 1.26.654.887.093 1.26-.327 8.683-19.653 9.243-21.24l.047-.047q.28-1.12-1.12-1.494-.094-.047-.234-.047m-47.615 21.427-4.855-4.294q-3.035-2.848-4.528-4.015l-.7-.467q-1.028-.607-1.681-.233-.234.093-.42.326-.514.514-.56 1.028v.046q0 .467 1.167 1.54 1.353 1.308 10.503 9.337l5.509 4.902q.606.607 1.26.467.7-.14 1.214-.887.56-.84-.14-1.588-.7-.747-6.77-6.162m4.996-21.007q-.7.42-.56.934.14.467 1.867 4.342l1.073 2.614q0 .186 1.774 4.341l4.108 9.243q.467 1.027.98 1.26.608.234 1.588-.093.513-.187.56-1.073.047-.84-.327-1.541l-8.076-18.58q-.7-1.633-1.353-1.913-.607-.327-1.634.466m21.753-5.601q-.886-.14-1.167.326-.233.374-.233 12.605 0 9.896.14 11.437.187 1.54 1.167 1.54 1.12 0 1.354-1.914.28-1.96.28-11.063 0-11.438-.42-12.231-.234-.56-1.12-.7m158.251 64.14-1.073-2.147q-2.708-5.228-8.076-6.582-2.148-.607-14.285-.7-12.09-.187-12.464.327-.14.326 1.82 2.1 1.915 1.54 4.715 4.342 2.755 2.754 3.595 3.874 3.408 4.529 4.902 7.61 1.493 3.08 2.194 7.142 1.307 7.61-3.175 16.058-4.528 8.497-13.35 15.032l-2.895 2.147q-2.894 2.288-13.164 7.843-10.224 5.509-11.53 5.509-.188 0-.281.093 0 .047.047.14.373.42 27.075.233 26.702-.233 27.916-.653 2.24-.747 4.201-2.614 1.961-1.868 3.128-4.389.56-1.167.654-4.808.093-3.548.093-23.574v-26.469q0-.28-.047-.513m-25.721-96.072q-2.848-2.427-9.29-4.901-.794-.234-4.248-1.027-.7-.14-1.354-.28-1.54-.14-3.268-.234-4.481-.28-7.936.233-2.614.42-5.181 1.26-3.128 1.075-5.696 2.475l-4.714 3.501-.14.14L289 49.7q-.56.608-1.074 1.261-3.548 4.762-4.901 10.55l-.187.7q-.747 3.969-.374 9.337.28 3.968 1.028 7.516.42 2.007 1.027 3.921l.046.047q.467 1.494 1.027 2.94l9.29 13.819.14.14.14.14q2.287 2.334 2.848 3.267.606.98-.374.794-5.835-1.027-9.15.654-3.267 1.727-2.987 5.555.233 2.38 5.508 3.22 5.275.841 9.57-.84 2.708-1.026 2.801-.046.14.98-2.194 5.462-.514.933.047 1.167.513.186 3.22.186 2.195 0 2.848.56.607.56 1.074 2.755.373 1.634 1.774 4.155 1.447 2.614 2.707 3.92 1.588 1.635 1.308 2.008-.42.327-18.767.374l-18.346.093-2.38 1.214q-4.762 2.334-6.396 7.142-.887 2.66-.747 28.71.094 26.048.98 28.009 1.308 2.707 4.062 4.808 2.707 2.1 5.648 2.567 1.074.187 4.389-.747 3.267-.933 6.068-2.194 1.26-.56 1.54-.56.374 0 1.028-.28.28-.233 4.061-1.82 12.557-5.229 22.08-11.998 9.524-6.862 14.052-13.864 6.022-9.337 2.847-18.906-3.127-9.617-15.358-19.047-2.8-2.147-3.128-2.754-.326-.56 1.308-.7 1.493-.094 1.4-.42-.14-.327-2.287-2.474-1.961-1.868-3.035-3.502-1.073-1.68-1.914-4.014-.793-2.241-.093-2.661.7-.374 5.835-.374 5.975 0 6.115-.28.187-.326-1.213-3.407-1.447-3.035-1.82-3.315-.328-.187-.328-.887t.374-.933q.373-.14 2.427.606 7.003 2.661 10.83 1.821 3.782-.84 3.782-5.042 0-2.754-1.634-4.108-1.587-1.307-4.995-1.307-2.568 0-2.614-.607-.094-.56 2.147-2.847 10.877-11.204 12.37-27.122 1.448-15.872-7.702-23.715l-2.1-1.774m-8.637-1.914q10.55 4.575 14.332 13.351 3.734 8.823.28 20.82-1.82 6.022-2.38 6.35-.328.28-.328.7 0 3.22-6.582 9.943-6.535 6.769-12.37 9.523-2.755 1.354-3.268 1.774-.56.513.467.747.746.233 2.614 3.64 1.914 3.409 1.914 4.622v.887h-6.676q-5.555 0-6.489-.327-.84-.326 0-2.194.84-1.54 1.12-2.38l1.214-2.755q.7-1.54.374-2.1-.327-.467-3.081-2.288-8.403-5.461-13.678-13.678-5.042-7.795-6.349-16.385-1.26-8.636 1.448-15.918 2.987-7.75 9.85-12.278 1.773-1.26 2.8-1.494 1.12-.42 1.214-.56 1.167-.793 4.015-1.354 1.353-.373 2.474-.513 1.82-.234 4.855-.14 5.135-.234 7.796.653l.186.047q1.54.56 2.054.56.374 0 2.194.747m-2.754 62.46q.887-.793 3.501-1.306 1.167-.28 2.008-.42 1.82-.234 3.314-.187 1.82-.094 2.941.326.327.094.607.28.653.327.887.794.467.84.28 1.727-.187 2.054-2.007 2.288h-.187q-3.268.14-7.796-1.26-4.528-1.354-3.594-2.241h.046m-28.336-.887 2.941.373q2.334.234 3.828.7.187.047.327.094l1.867.747q1.867.653-1.587 1.96-3.501 1.26-7.049 1.214-4.341-.047-5.135-2.054-.794-2.054 3.314-2.708l1.494-.326Z"/></svg>